<mxfile host="app.diagrams.net" modified="2023-01-27T09:43:03.040Z" agent="5.0 (Windows NT 10.0; Win64; x64) AppleWebKit/537.36 (KHTML, like Gecko) Chrome/109.0.0.0 Safari/537.36" etag="RkNMknFS0_L4JQ-brp3i" version="20.8.13" type="github">
  <diagram name="Page-1" id="GUNejaiKio2PQDBOVde5">
    <mxGraphModel dx="1120" dy="484" grid="1" gridSize="10" guides="1" tooltips="1" connect="1" arrows="1" fold="1" page="1" pageScale="1" pageWidth="850" pageHeight="1100" math="0" shadow="0">
      <root>
        <mxCell id="0" />
        <mxCell id="1" parent="0" />
        <mxCell id="VienW1UAEBqyCbYDbcf2-2" value="" style="rounded=1;whiteSpace=wrap;html=1;" parent="1" vertex="1">
          <mxGeometry x="380" y="60" width="360" height="470" as="geometry" />
        </mxCell>
        <mxCell id="VienW1UAEBqyCbYDbcf2-3" value="" style="rounded=1;whiteSpace=wrap;html=1;" parent="1" vertex="1">
          <mxGeometry x="390" y="70" width="360" height="470" as="geometry" />
        </mxCell>
        <mxCell id="VienW1UAEBqyCbYDbcf2-6" value="Amazon EKS Cluster K8 Controller Nodes on EC2 Instances" style="text;html=1;strokeColor=none;fillColor=none;align=center;verticalAlign=middle;whiteSpace=wrap;rounded=0;" parent="1" vertex="1">
          <mxGeometry x="559" y="80" width="115" height="30" as="geometry" />
        </mxCell>
        <mxCell id="VienW1UAEBqyCbYDbcf2-7" value="NSSF" style="rounded=0;whiteSpace=wrap;html=1;" parent="1" vertex="1">
          <mxGeometry x="410" y="220" width="50" height="20" as="geometry" />
        </mxCell>
        <mxCell id="VienW1UAEBqyCbYDbcf2-8" value="AUSF" style="rounded=0;whiteSpace=wrap;html=1;" parent="1" vertex="1">
          <mxGeometry x="470" y="220" width="50" height="20" as="geometry" />
        </mxCell>
        <mxCell id="VienW1UAEBqyCbYDbcf2-9" value="NRF" style="rounded=0;whiteSpace=wrap;html=1;" parent="1" vertex="1">
          <mxGeometry x="525" y="220" width="50" height="20" as="geometry" />
        </mxCell>
        <mxCell id="VienW1UAEBqyCbYDbcf2-10" value="UDM" style="rounded=0;whiteSpace=wrap;html=1;" parent="1" vertex="1">
          <mxGeometry x="580" y="220" width="40" height="20" as="geometry" />
        </mxCell>
        <mxCell id="VienW1UAEBqyCbYDbcf2-11" value="UDR" style="rounded=0;whiteSpace=wrap;html=1;" parent="1" vertex="1">
          <mxGeometry x="626" y="220" width="40" height="20" as="geometry" />
        </mxCell>
        <mxCell id="VienW1UAEBqyCbYDbcf2-12" value="AMF" style="rounded=0;whiteSpace=wrap;html=1;" parent="1" vertex="1">
          <mxGeometry x="400" y="295" width="60" height="25" as="geometry" />
        </mxCell>
        <mxCell id="VienW1UAEBqyCbYDbcf2-13" value="SMF" style="rounded=0;whiteSpace=wrap;html=1;" parent="1" vertex="1">
          <mxGeometry x="520" y="295" width="50" height="20" as="geometry" />
        </mxCell>
        <mxCell id="VienW1UAEBqyCbYDbcf2-14" value="PCF" style="rounded=0;whiteSpace=wrap;html=1;" parent="1" vertex="1">
          <mxGeometry x="590" y="295" width="50" height="20" as="geometry" />
        </mxCell>
        <mxCell id="VienW1UAEBqyCbYDbcf2-15" value="" style="endArrow=none;dashed=1;html=1;dashPattern=1 3;strokeWidth=2;rounded=0;exitX=0.207;exitY=0.468;exitDx=0;exitDy=0;exitPerimeter=0;startArrow=none;" parent="1" source="VienW1UAEBqyCbYDbcf2-72" edge="1">
          <mxGeometry width="50" height="50" relative="1" as="geometry">
            <mxPoint x="434.03" y="291.96000000000004" as="sourcePoint" />
            <mxPoint x="434" y="242" as="targetPoint" />
          </mxGeometry>
        </mxCell>
        <mxCell id="VienW1UAEBqyCbYDbcf2-16" value="" style="endArrow=none;dashed=1;html=1;dashPattern=1 3;strokeWidth=2;rounded=0;edgeStyle=elbowEdgeStyle;elbow=vertical;" parent="1" edge="1">
          <mxGeometry width="50" height="50" relative="1" as="geometry">
            <mxPoint x="545" y="292" as="sourcePoint" />
            <mxPoint x="595" y="242" as="targetPoint" />
          </mxGeometry>
        </mxCell>
        <mxCell id="VienW1UAEBqyCbYDbcf2-17" value="" style="endArrow=none;dashed=1;html=1;dashPattern=1 3;strokeWidth=2;rounded=0;edgeStyle=elbowEdgeStyle;elbow=vertical;startArrow=none;" parent="1" edge="1">
          <mxGeometry width="50" height="50" relative="1" as="geometry">
            <mxPoint x="647" y="260" as="sourcePoint" />
            <mxPoint x="647" y="242" as="targetPoint" />
          </mxGeometry>
        </mxCell>
        <mxCell id="VienW1UAEBqyCbYDbcf2-18" value="" style="endArrow=none;dashed=1;html=1;dashPattern=1 3;strokeWidth=2;rounded=0;edgeStyle=elbowEdgeStyle;elbow=vertical;startArrow=none;" parent="1" source="VienW1UAEBqyCbYDbcf2-74" edge="1">
          <mxGeometry width="50" height="50" relative="1" as="geometry">
            <mxPoint x="434" y="292" as="sourcePoint" />
            <mxPoint x="484" y="242" as="targetPoint" />
          </mxGeometry>
        </mxCell>
        <mxCell id="VienW1UAEBqyCbYDbcf2-19" value="" style="endArrow=none;dashed=1;html=1;dashPattern=1 3;strokeWidth=2;rounded=0;edgeStyle=elbowEdgeStyle;elbow=vertical;" parent="1" edge="1">
          <mxGeometry width="50" height="50" relative="1" as="geometry">
            <mxPoint x="490.5" y="292" as="sourcePoint" />
            <mxPoint x="540.5" y="242" as="targetPoint" />
          </mxGeometry>
        </mxCell>
        <mxCell id="VienW1UAEBqyCbYDbcf2-20" value="PCF" style="rounded=0;whiteSpace=wrap;html=1;" parent="1" vertex="1">
          <mxGeometry x="464" y="295" width="50" height="20" as="geometry" />
        </mxCell>
        <mxCell id="VienW1UAEBqyCbYDbcf2-21" value="" style="rounded=0;whiteSpace=wrap;html=1;" parent="1" vertex="1">
          <mxGeometry x="409" y="387" width="250" height="90" as="geometry" />
        </mxCell>
        <mxCell id="VienW1UAEBqyCbYDbcf2-22" value="GTP-U Tunnel" style="rounded=1;whiteSpace=wrap;html=1;" parent="1" vertex="1">
          <mxGeometry x="425" y="407.5" width="85" height="35" as="geometry" />
        </mxCell>
        <mxCell id="VienW1UAEBqyCbYDbcf2-23" value="" style="endArrow=none;html=1;rounded=0;elbow=vertical;entryX=1;entryY=0.5;entryDx=0;entryDy=0;" parent="1" edge="1">
          <mxGeometry width="50" height="50" relative="1" as="geometry">
            <mxPoint x="545" y="425" as="sourcePoint" />
            <mxPoint x="510" y="425" as="targetPoint" />
          </mxGeometry>
        </mxCell>
        <mxCell id="VienW1UAEBqyCbYDbcf2-24" value="UPF" style="text;html=1;strokeColor=none;fillColor=none;align=center;verticalAlign=middle;whiteSpace=wrap;rounded=0;" parent="1" vertex="1">
          <mxGeometry x="505" y="470" width="60" height="30" as="geometry" />
        </mxCell>
        <mxCell id="VienW1UAEBqyCbYDbcf2-32" value="User Plane" style="text;html=1;strokeColor=none;fillColor=none;align=center;verticalAlign=middle;whiteSpace=wrap;rounded=0;" parent="1" vertex="1">
          <mxGeometry x="940" y="385" width="120" height="50" as="geometry" />
        </mxCell>
        <mxCell id="VienW1UAEBqyCbYDbcf2-33" value="Data Network" style="rounded=1;whiteSpace=wrap;html=1;" parent="1" vertex="1">
          <mxGeometry x="820" y="397" width="120" height="60" as="geometry" />
        </mxCell>
        <mxCell id="VienW1UAEBqyCbYDbcf2-34" value="" style="endArrow=none;html=1;rounded=0;elbow=vertical;exitX=0;exitY=0.5;exitDx=0;exitDy=0;" parent="1" source="VienW1UAEBqyCbYDbcf2-33" edge="1">
          <mxGeometry width="50" height="50" relative="1" as="geometry">
            <mxPoint x="674.0000000000002" y="428" as="sourcePoint" />
            <mxPoint x="630" y="428" as="targetPoint" />
          </mxGeometry>
        </mxCell>
        <mxCell id="VienW1UAEBqyCbYDbcf2-35" value="NAT" style="text;html=1;strokeColor=none;fillColor=none;align=center;verticalAlign=middle;whiteSpace=wrap;rounded=0;" parent="1" vertex="1">
          <mxGeometry x="614" y="405" width="60" height="30" as="geometry" />
        </mxCell>
        <mxCell id="VienW1UAEBqyCbYDbcf2-36" value="N6" style="text;html=1;strokeColor=none;fillColor=none;align=center;verticalAlign=middle;whiteSpace=wrap;rounded=0;" parent="1" vertex="1">
          <mxGeometry x="750" y="405" width="60" height="30" as="geometry" />
        </mxCell>
        <mxCell id="VienW1UAEBqyCbYDbcf2-37" value="" style="endArrow=none;html=1;rounded=0;elbow=vertical;exitX=0;exitY=0.5;exitDx=0;exitDy=0;" parent="1" source="VienW1UAEBqyCbYDbcf2-22" edge="1">
          <mxGeometry width="50" height="50" relative="1" as="geometry">
            <mxPoint x="425" y="424.47" as="sourcePoint" />
            <mxPoint x="380" y="430" as="targetPoint" />
          </mxGeometry>
        </mxCell>
        <mxCell id="VienW1UAEBqyCbYDbcf2-38" value="Tunnel Interface&lt;br&gt;(ogstun)" style="rounded=1;whiteSpace=wrap;html=1;" parent="1" vertex="1">
          <mxGeometry x="535" y="407.5" width="94" height="35" as="geometry" />
        </mxCell>
        <mxCell id="VienW1UAEBqyCbYDbcf2-47" value="&lt;b&gt;&lt;font style=&quot;font-size: 24px;&quot;&gt;Open5GS Cloud Native Deployment Overview&lt;/font&gt;&lt;/b&gt;" style="text;html=1;strokeColor=none;fillColor=none;align=center;verticalAlign=middle;whiteSpace=wrap;rounded=0;" parent="1" vertex="1">
          <mxGeometry x="80" y="110" width="270" height="30" as="geometry" />
        </mxCell>
        <mxCell id="VienW1UAEBqyCbYDbcf2-49" value="" style="endArrow=none;html=1;rounded=0;fontSize=24;exitX=0.555;exitY=0.014;exitDx=0;exitDy=0;exitPerimeter=0;" parent="1" source="VienW1UAEBqyCbYDbcf2-21" edge="1">
          <mxGeometry width="50" height="50" relative="1" as="geometry">
            <mxPoint x="499" y="365" as="sourcePoint" />
            <mxPoint x="549" y="315" as="targetPoint" />
          </mxGeometry>
        </mxCell>
        <mxCell id="VienW1UAEBqyCbYDbcf2-50" value="N4" style="text;html=1;strokeColor=none;fillColor=none;align=center;verticalAlign=middle;whiteSpace=wrap;rounded=0;" parent="1" vertex="1">
          <mxGeometry x="504" y="340" width="60" height="30" as="geometry" />
        </mxCell>
        <mxCell id="VienW1UAEBqyCbYDbcf2-58" value="" style="rounded=0;whiteSpace=wrap;html=1;" parent="1" vertex="1">
          <mxGeometry x="370" y="300" width="30" height="20" as="geometry" />
        </mxCell>
        <mxCell id="VienW1UAEBqyCbYDbcf2-59" value="Node Port(30412)&amp;nbsp; Endpoint for handling Control Plane SCTP Traffic&amp;nbsp;" style="text;html=1;strokeColor=none;fillColor=none;align=center;verticalAlign=middle;whiteSpace=wrap;rounded=0;" parent="1" vertex="1">
          <mxGeometry x="190" y="308" width="130" height="60" as="geometry" />
        </mxCell>
        <mxCell id="VienW1UAEBqyCbYDbcf2-60" value="" style="endArrow=classic;html=1;rounded=0;exitX=0.769;exitY=0.833;exitDx=0;exitDy=0;exitPerimeter=0;" parent="1" source="VienW1UAEBqyCbYDbcf2-59" edge="1">
          <mxGeometry width="50" height="50" relative="1" as="geometry">
            <mxPoint x="500" y="350" as="sourcePoint" />
            <mxPoint x="370" y="305" as="targetPoint" />
          </mxGeometry>
        </mxCell>
        <mxCell id="VienW1UAEBqyCbYDbcf2-61" value="" style="rounded=0;whiteSpace=wrap;html=1;" parent="1" vertex="1">
          <mxGeometry x="370" y="415" width="30" height="20" as="geometry" />
        </mxCell>
        <mxCell id="VienW1UAEBqyCbYDbcf2-63" value="" style="endArrow=classic;html=1;rounded=0;exitX=0.769;exitY=0.833;exitDx=0;exitDy=0;exitPerimeter=0;" parent="1" edge="1">
          <mxGeometry width="50" height="50" relative="1" as="geometry">
            <mxPoint x="269.97" y="424.5" as="sourcePoint" />
            <mxPoint x="380" y="424.52" as="targetPoint" />
          </mxGeometry>
        </mxCell>
        <mxCell id="VienW1UAEBqyCbYDbcf2-62" value="ogstun interface for handling the data traffic" style="text;html=1;strokeColor=none;fillColor=none;align=center;verticalAlign=middle;whiteSpace=wrap;rounded=0;" parent="1" vertex="1">
          <mxGeometry x="160" y="395" width="130" height="60" as="geometry" />
        </mxCell>
        <mxCell id="VienW1UAEBqyCbYDbcf2-64" value="Callico CNI for internal NF to NF communication&lt;br&gt;SBI Interfaces&lt;br&gt;PFCP Interface b/w SMF and UPF" style="text;html=1;strokeColor=none;fillColor=none;align=center;verticalAlign=middle;whiteSpace=wrap;rounded=0;" parent="1" vertex="1">
          <mxGeometry x="150" y="218" width="200" height="70" as="geometry" />
        </mxCell>
        <mxCell id="VienW1UAEBqyCbYDbcf2-67" value="" style="shape=image;verticalLabelPosition=bottom;labelBackgroundColor=default;verticalAlign=top;aspect=fixed;imageAspect=0;image=data:image/png,iVBORw0KGgoAAAANSUhEUgAAAW0AAAApCAYAAAD+v3jsAAAgAElEQVR4nOy92ZMc13Xu+9s51zx3V8+NxtBoEANBNEgKoEWKlkRLvkGduA86cjjsc2+E3/3n+M3hB0fYEVKELPrIRwqKlCkQIgmCAAgQUwONRs9zzVPO96E6E9WNBkhKlK5oY0VXVFdW1s495P72Wt9aa6dwXdcH8H2f/UQI8aU+P5Nn8ky+fvJF5/9TSgh+8ZTv9r/Gnis+oYxnEojyeYPS281CdD8/69Jn8kz+a8mTcWA/oH0aAjzp/M9Dji8C6F9n+bL9+GRRvsylfED6nS7zTJ7JM/l6yl6w+V0A+5l8lfK5oP24+D2GkMDH7xkWses8Hjv+pNX02cA+k2fydRF/n3n8bAYH8jSL4WkU0heXLw3anvB3LtuFa4nuIPqehO91z5EkH4S/Y3LtraC359iz4X4mz+RPXwJ6w8fdpbb1Wt/PyNNH4vO44vrV9M8j0N6H0+pCrg9i7/rRrZAIK+HieeDZMgCe7CHkbglC9AyqAIG3Q473AHrQnp1r7a7BM3kmz+SPJU+2hQMQErh4eDtH5R3FLTjryaV+Hmf+X2Gu7yWTvZ7PT3ew7sdLPElC0Pb3nC38nm/8YNAeHZOC4oUAFIQiIckC24ZGS8I0HRRFQtNBV7sXUhUBktQt25d2ldcdV79nfP8rDOIzeSZfL3kctKWuouV3bequ4vUkmA6AqRes/jtr33s9gE/2CH6Zpeup9EjQ3SL45AcGkegy2ULgIvAQ2ECtCZtbLkvLTUrlGslkkmwuSjYnE1cF+RjomowUlOkDvt/7YUerF7sa8GVcIc/kmTyTLy9Pj93oARsfFAHyzsf95+IOwIfg/d9nxvohanZRLsSwXiVY9Pwfyhfvo/1B23/0FjIxvtT935fwffCEwBXQtqDleNTaDjMPPJZW2sw+2GJ9vUwm0yaTizMymmB0IMqBfkEuKohoIPugqSB8Ad5Oo+RHVIzYc/0v37Rn8kyeyReVp4N2F4o8x0VSZCREDwr5O38BXImdSeoBHkLITyp0R77mM7oHKxGPegF/N2BbDsgKj9iEHhE9KCe+AMuwC7SDsgJN2MfHFzvXERL4Ag9ou2D60LB8VrYtlrZbzK80WVh2WF2zWVurU6+5pCoWzuwKffMxThwbYrPi05fSGMjqpCKCQhIUHyQHhO+BJHbV5REl8zUf2GfyTL4msh94+/hIeLhOB0mJgOvhm1aPGd51TnpIuK6H67p4vkssqiEpOkJI/+Vmcu+aBeAJwHd3GiiFxIFpQbtl0+745PpVJLHbb+fv+PIEIKQvllgkPM/zobsu+jvnS37ATLlhGZ4v47mCpg1bNYdSy+XBisncepn59W3KdUG1plGte3ieRDQWp9VqAS5CgnRSI642OTiSZXKswIFBhYGYQkoXJDWBroASAYQXEurd+0HqGllB3XpMjj+mPCljLJBnmaHP5OssAZHxpLtcwgFMcFysSoXW+iau5yEUCQwVT9OxPIXNzTKlUgnfdzg+dYhc/wCyEu8qf/8/zd2vUgIc8L1HsRMg8IUPkrUDvyp4AteB5UWT+/eW0CMyZ78xiqLs9LAIyvNCrVyWJeQn9FAvvjyRHulq2d0CfSFhA8slj+Utl7nlEotbDWbXKpSaLqW2jePr+I5P0+2QycUYO5ijVtVYW9ugWu5g1l22hE/FrvNwrc1oLsrB/jgH+mMcGNTIJQUp0VW2ReCb9qUdzvuPN9TBoASd9Hlg/UyeyVcpe++/r7z8pxx59J947JgH+E4Tu7rJ+v1ZFmbuUymXkQ0NORVHMuJsVS3uzy6xvb1FJKrjdM5x8oVpsn1jKIr2x5zGX6E8HjeH7+P7Asf18L0uHSQkAA8kuUtb++DYMD+/xnvvfcTwSIEzZ4fxZQWE+4hW8QX4cjdx0fPxhP8YRbK32/YBbRFSI57v4wmZtiOxVXf44GaLuZUmD5bWWK/UqdkertBwUHB9HwUPVfJIxRSGChGShmBzZRHF91B8CdsWbJdsalsNqls1VuYFS4N51jbzjA7LnJiKENEkNOEg+x54Al+IXras22FBTYXYF1S/yhv+i+7J8IeebL+P+L6P7/th3f4U6/hMuuPkeR6SJGGaJq7rPlVpUBQFSZKwbRtVVVEU5XPHdm9pjyfKBLO/61xyfZAFuJ5gc22D5uY8S/ducv+z69TK2ygRAyOfRY+nmV9cZ2FhmUq5jB6NckX3USNRDqBR7B9Gl2WCMOCvj+wloEX48hwPy/Eol2q4nkM8ZRCNxNBU8LwuaJcqdeYezqPpEu22i6zJyELGccF2PCrbJUzTYmCgH9mQ8cIwjO58FSG4P8KXcO+Rvf0okHA9sCWJ+ZLDB9e3+OBqleUNk2bHQtZimK65M+g2sgeGDImYzlDUICcLVMlHazdJ+Ap2o046msBDBk/DbHtstjyqtW0eLLYZHjKI948z3CdISYDnIvkqjyrn90SKdmtr2za2beM4Dp7nkUwmf2dA6p0cpmniOA6O46CqKpqmIUnS1wbs9k50z/NC0JYkaReAP5M/DQkA2/M8LMvi9u3brK2tPRW0VVUlGo0CcODAAQYGBn7vcQ0UJB9w3UfBAOubVW5+dh+aG2wuLjH/cIby5iqyrhMt9ZPKZJDMDv1aA0mUKG2tUlrvY2V5EVOKgGzQn84S0VQInZVfB9ld0SCOxhegqSqtdodPrlxlaXmV0ZFxTp48TaGg0qiZVMptmo0OlmXR7rSZfbDN8GiKdCKKZQkezG3w4W/fx7Ra/D//7/9EMyRkHicX9voD9nVE9lbRcmB+pcbVzxZY3tSotGQUJUYkaqB4Tax2E0OVySViJHSNdExhdDjBcF4gCnGc6hCNhmBju0m1XqfZtpAVg1gshWcLTNNjoyqD6nJvvkM2GSFmCJTgZvV3NG3f22lIt9s8z6NUKjE/P0+pVEJVVc6dO4dhGL/z8ASTZmZmho2NDUzTZGpqioGBAVRVDc/bT8P/UwPBQLsOXgCyLO/6/k+tzv/dxbZtZFlmeXmZt956iwsXLuC67r7nep5HvV4nm81y/Phx/vqv/5pisfh716HXv2a7IEmwud3i2tUbmC2TpKxRqtYplSqYrRaa8KmUyriOzcGRftSMTiYiKLcdtIgKeHTMDrdv34GJQwwW+tAMtSfK5OspPmBaHqqmk0ikWVq4zt3PtsEdYnDIYfb+KmtrG6ysrFKtt3jwcJ4LFy8y9HCIkaEjJGNRfvG/P2JxeZ5jx8dR5G74R5C2JNPFmEfBIU/gtMMw+J0zZUnFtaBZ91hZLtHu5JGERj6bZmgohdmu0qhCJmFweLyPoUIaTXJIZ1QKue6Aa9Iw+Dor6w3ml1a5M/MQVY8wPFqkWRcsrzSp110q1Q43ri9zbGyCnCrTTansard+l1Hb5cbwfZ+1tTV++tOfMjc3x9TUFIcOHWJkZATYn5N+2jEAy7LodDq8++67fPLJJ+Tzefr7+xkcHAxN0ACw/9iA96Q6P01s26bT6dBut7Ftm0KhgK7ru/rhD00l7Vf+543J5/3+q5Av0p9P03K/qM/jy9RfkiQcx2FtbY2bN29y6dIlHMd5Yt1c1yUWi+F5Hm+++eYT67LreFDvnUm+Pz3ySCqVDnfuPqBaaxM1IjSaNebml+jYHpFYikJfHy0UNE3FsmwyuRQyPhFH8GCzQrvZpC+RoFxpsrCwiOIL+vr60Azl9wbuPw4luX/ciw+4XheTBoeGSSWLXP/kHr5zjVQ6Ra1WIZ2OEo1meP75aUyrzMrqEivLK9wyNkjH+7l6+QH9gylOHD+Oqu12QYbpK49f+nFOuzfu2/O6ISudloxpqfhCQ5ZV4vEIhYxOpJDHbAoG+nQG+tPgmDTqbapNiKfjtOsO9XaVTDLKQNFgaOgQ8ahHx9TIFmIsCxO9YlBtWjQ7bRYXy2ysjTOSUkDRdldG+L21w/d9arUaFy9e5M6dOwghWF9fD7Vi13VDKmAvOLmu2+WL9gy24zg0Gg0+/fRTfvGLX3D48GHeeOMNPM/Dtm00Tev20T589n6ccaAlPYla+TxQ8Dxv33oGpvR+3wWLSmBm37x5k8XFRUzT5NVXX2VkZGRX/WRZfuxanueFdQ940r3X69XgnzZpnmSR7D3+pLL+kBZN0E9BH/TeF1/mOsHY79eGL1p/IQSqqoZ0nxCCTqfzRNAO6myaJq1W64nn7a3HI016dxRDz5n4CHwf2q0WDx8usry4RiaXQ5KaLC3cY2WzTFyNYMRUMn1DaI4A4WIYEqqq0gaqlQq1qsV2aYtDqoqiulSrdRa8JaKROGk1gaR08zQ8z8fzPULyUzzqk97+Cvh+x3GQZTn8/LR+3dv+3v7+ctLbf93+kRUZy4JUJsfA0AiSfJ+19RWSKYOXv3GUgcEC6VwCI6JQa2zhuFVm7i5x8/oWs7ev0WlbHDhwgMNHxgAf13ORJIEcZI0/QULQluhJPu36IvCBUhm2Sw7CT+B5Cq7vsrm2RlKzOHemj77JQUYHYWHR5db9Ne49vE8yr/Fi5DT1Wo2LFy+RiRWZGB3j+ecH+OYrx6jX4PrtMvdnF6i1I1jo+J5Lpy3TqAoUGYQvd/l+wkTaXSJJUqj5GoZBs9kkmUxi2zaKotBqtZAkaRdwy7IcfpZl+dGNvPMegLOqqnieR7PZpNPp0Gw28TwPRVHQNA1F6Xab4zjhTRQAXQCEhmFgWRaSJKFpWliHXudS8PugHa7rhhRNcG4vpx7U1ff9XZM0AFhd18N2uK5LqVTin/7pn7h+/TrFYpGjR49SLBYRQiDLcmiOA3Q6nRCYg2vLsoyiKOHnoK22bYcTJuiTJ8nnAXrvZOpt4xf5/VchnU6HWCwWWlmqqob9uLcuvfWxbTu8j3rP20udfZn6CyFQFOWJFF9w72qaRj6fRwhBs9kM75/Pk739jSQe07R3pj6uB4tLqzyYm0fVIvhCoeP4rJfrKJEUrl2j0jJJtkyajoQkXNIxHXbmo2tv4XsOrWaTre0yqpHEMdtUqlVMy8K2HGRfotPuYJs2vtztU0PXEZKEbZu7fEm+79NqtUin01SrVWRZDpUzTdOIRCKf2/befv7iUWGBytvtX49u5Ijrgap0+6nV6NBqVRkZTzF59Ah/9mcv8txzGbwdS6K7zdIQMW2I5547xuGDm3x48TPu37tPKq3RarXIpOPgO0iqioxASAKvd2x6/n1iGrtHN2C83vBoNHzwoyTiWaqNOu1Wnc3VVXSpQDENkush2W2EY+GZFrgyyVgEGdAkCclz0WWfmAqSAboMZqcKwsSXBJ7s47s2vq/SqHs06zKReLeivti9xj1tUCzLotls0mq1WFlZwfM84vE4mUyG7e1tLMtC0zTGx8eRZRnTNFlbW6PZbBKNRkmn07vKs22be/fuoes6kUgEXdcZHx+nUCggSRKdTgdFUeh0OlQqFTY3N9nY2EDXdcbGxkilUuRyOTzPo91uU6/XKZVKtFothBA4jkMkEmF8fDwE2VarRb1ep9PpoGka8XicgYEB0ul0dzLsLAyu61Kv19nY2KBSqeD7PsPDwyQSCeLxONClexYXF3nw4AGSJHH//n0URUFRFAYGBsjlcti2TbPZZGNjg+XlZXzfJx6PUygUGBwcxPO6y6XneWxvb7O2tsb29nbo+M3n8yHt8kWiFwJ5kjb7xwqxDK4fLNAbGxt0Oh0ymUzYR3vrFYC067pUKhWazSaZTIZYLIbv+1+Jk/dpfaiqKqqqMjY2xosvvohpmty+fZtYLIZt21+ovb292wUgCDIYu0umFCagV2p1KrUGw0NF2mabluXgyhqepNHsOEQ1hVS+SMZIIXkmfQkHTbLotHw0XSedjqDKEtvbW+T6ouD5tDotHs7NoetHkCSJhYV5TNMknUuzsb5BcaAP3/dZX1+nUCiEfRH4sCYmJqhWq9TrdYaHhymXy+i6zujo6OcqCL3f7wXuJ1F7Qe5K8EufbkSN43gYqsDQBKoqMX5wiJEDQxw+eIDR8QzujjYe7I3nA7bnk0zCiZMFkqkXODyXI55Q0CMekYiChxxuACB28SO7ZdeGUcGQer54NHB1h1rFwXNVHKuLopqsdCusgNny2V6u4tsOBwbzqLJHKqdSiMkYnsyJQ+MUcwP05wqYNZtKzUXWDSK6ihB2d7WXXHzh4fg61bpNtaaSjYLfjRCiuz3V/put9GoPnU6HlZUVrl69ys2bN0mn00xPT3P06FF+/etfMzs7S19fHz/60Y8oFossLCzw05/+lOXlZU6dOhXygkF55XKZd999lw8//JBYLEYmk+Hll1/mlVdeoVgsdk3BdpsbN27w4Ycf8uDBAyqVCoZhMDg4yCuvvMI3v/lNVFVlbW2NDz/8kJs3b7KysoIsy+i6Tn9/P9/73vdwXZe3336barUaAkIkEqG/v5/Tp0/z/PPPc+jQISRJYmtri7m5OW7fvs2NGzdYXFxElmUmJiY4ffo0L730UqhRByb0xsYGP//5z3nvvffo6+vjL//yL9F1na2tLa5du8bVq1dZWlqi0WiQTqc5fPgwr7/+OlNTU6H/4P333+fmzZusrq4ihEDXdaanpzl//jwTExNfWOMLxLKs3TfjPoD1h/YfBGO4vLxMrVbD8zwikUhoYfRKYJbbts3W1haLi4scPXqUaDQaWiJ/aMsguKf/9m//luXlZTqdTrjAf55YlrXLYlUUpSccYsfaFh4eMq4Pq1vbeELCQWD7EpIWJZHpJ53JUWlVSCYNDh48QrY4gue0SCtNWpUVfM+l4EpIHQlb+Ny7N8PaVp2jIwcw2y0ezs8zMjpKJKKhqAqu5+I4Ds1Wg+3trgXcbDaJx+O7rC/HcWg2mzSbTRzHwbKsXff406inoL1BeYEE8z2wbgMlRQiBrCgIuRutFmi9/g5t3GybuJ6BoUIsrjF99hSyIiFJFo1WE8sSCCFhRHQUWWDZLrYC6ahMOg2O0BgaP4rrOmiqj+n6dCwTBQlFVVCl7gZ8XSW/l1f3d0DbD8LpesJ9fDBdqFRMqjULz5Vp1FqguOgRmXwugSwJ5ufqrC7MMlAscGBiiPHxLGpE4Ps2Q30RMi89h+/CxnKDO7dWsRFMTE0wNj7I5Vur0JGQUEH1MSXBVrtNqRVhSAJVdPmtbpX3B23X7Q6467q0Wi2uXr3KT37yE+bm5jh//jzHjx+n3W5z9epV3nnnHQ4dOsTLL79MPB7n4cOH/OxnP2N2dhbbtnnjjTfCMoUQVCoVZmdn6XQ6oZY+MzNDs9nkzTffRJZlbt26xb/+67/y7rvvhpqzEIKLFy+yvb1NNptlamqKjY0N3n77bd5//31KpRK5XA5FURgbG2N4eBjTNPnJT35CpVIJTeRAI79x4watVov+/n5SqRRLS0v8+7//Oz//+c+pVCoIIYjFYnz00UfcuXMH27b59re/HVoC0F2APvzwQ3RdZ3h4mNOnT5PNZvnkk0946623uHHjBoqiUK1W8X2fjz/+mLW1Nf7u7/6OXC7HtWvX+Jd/+Rfu3buH53nkcjlkWaZQKHDy5MkvDdiBw21ra4tcLkcsFiOdTj8GfMH/QQhmp9PZNZGDMMagnQF108vVa5oWTuygzEDTCqi11dVVlpeXURSFbDYbmt57XwGNZJpm6ORtt9shcAblBqZ9QIcFdQloOV3XQ/46oKJ66bZgUezv7w/BRpZl8vk84+PjFIvFcHwdxwnfg3b3Si+9sLm91TXHs1mK/UUkqTvfg60rBOB7Po1Wh+1qA2HE2Gg1EJKGLMVJJIsM9A8gN1awm5u0q+tYqTSua1MRLWrVBtV6k5ZpYyQHMH2VzeVF7s3cYyCZxrMcXLeB6XSIqgaRmEHbbFEul4nFokSj0XAe1Wo1hBBks1k8z6PVatFsNtF1nWQySbVaDemR1dXVcHwVRSGZTNJut6nVakiShK7rFItF4vH4vj6HTqfD+vp66LDXDB1dEig79Je3g5GuI9NsOty7u0IylSeZMJiZmSORjFPoy7OwsMjmegkkiXQmzcjIKK5jsbyyyvjBPnQtiRA+9UadteUq/f1DJItRtjc8VlZq6LLM8Ggaw/CIRGR8aSdyzgeEwPelALR3oNrvOiE8fBwElTqsbzeo1NqAgSILNF1GFhb5fBKEYGFphdWlGo2GSzaf5lAxiYPN/MIqkUiU8eEsc/N1bs/c5+atDZKZHGNTLrGkTCyeodSwUYSOGlNpeWWWWxWWG3EmfB1ddHcU6/pod7Huu1ZH0zSpVCp88MEHvPvuuywsLHDkyBG+853vcPTo0fBmtiyLdrvN1tbWrrjYgANuNpsh/6yqKrFYjFdeeYW+vj7m5+e5cuUKH3/8cahx67rOhQsX+NWvfgXAuXPnGBsbY2VlJdTQh4aGyOVyLC8vs729TalU4vDhw/zZn/1ZGJ1y+PBhLl26hGmamKbJmTNnOHPmDA8fPuTtt9/m4sWLjI+P841vfAPP87h8+TLvvPMOCwsLvPbaazz33HM0Gg3ef/99Ll++TKFQ4Pjx42iahuM4tNtthoeH+c53vkOxWCSTyXD48GFKpRK//vWvuXDhAiMjI5w/f55IJMLMzAwXL17k3Xff5eTJk5w/f56FhQVu3bpFp9Ph/PnzvPbaayiKwuTkJIODgziOE4LW54lpmjSbTT799FN++ctf8p3vfIezZ89iWVbI5/Y6mTzPo1arcf/+fVZWVjAMY5fzNxaLkUql6HQ6lMtlbNsmEomEFNbQ0BCRSIS5ubmQxgjKHhkZYXNzk7t377K0tISqqiFFYlkW6+vrrK+v0263iUQi2LZNX18fQgiSySTlcpnNzU3K5TKyLCPLMp1Oh2KxiGEY1Go1LMsKabQgemdoaIhSqUS9Xsc0TQzDCEP4tra2ABgaGuLNN99kaGgIRVFot9skk0mOHj3KwMAADx8+DJUWWZZDQOsFo+B/0zSxLIvf/OY3PJyb4ztvvEEiHicZTyDJAt/rZvMJfHzXZWNjExdBy3HotJr4vo3XhoznkU7FkfMGm/USn136FdqDOYQeQWCiem0Ur4PpqfgRgS0EEdmj3KmztrGKpseQJYHtu1RqVT768ANu376NpqrIisy5c+fY3NzkypWrod/mtddeA+Ctt97iL/7iL3j55ZdxHIcLFy6wtrbGyMgIW1tboQITjUY5deoUs7OzzMzMoGkaiUSCc+fOcf78+V1WSbBArq+v8+Mf/xjXdfnBD35AcWgQRVGQlSBMVsL3fDodn4WHFX7xfz5gaHCC0dER/vO9DxgbG+XFF1N8emWJ+zMLxJIxTpxUKOQ8blyf59Kli/zfP3ydVCqG77ssPCzxi3//hNHho7z2rYM8uGdy8cIVUgmdv/5frxKPKl16xfMJNtHD9xHC7+G0/UdOCB9wgWodWm0bx/MRskxMV+nYJSTFojiYRKiCRDpKu5lFU32EauL4PlvbJnfvzGMYEZLJDJouSGWjDI/30TJ9HN/CiGlEDA1N9Wh1LCzLwZUdys06G9Ua9U6elLazc2+IAz3PyNgxl4QQ2LbNxsYGP/7xj9nc3GRqaoof/OAHvPTSSwwPD7OwsBA6BYOJFfyvKMqu90DT0zSNiYkJ3njjDaanp1lfX+cf/uEf+I//+A8WFxdZX19HkiRu3LhBtVqlr6+P8fFxpqam0HWdeDxOqVTi7t27NBqNEChisRgnTpzgzTffZHJyklgsRq1W4/bt2ziOQzqd5ty5c3zve99jc3OTSqXC22+/zY0bN5idnaVarXLlyhWWl5fJ5/McOnSIEydOUKvVuHfvHrOzs9y+fZuVlRVGR0fDtmUyGX70ox9x7NixEBA/+OADrly5QqVS4dSpUxw4cIBUKkWz2USSJDY2Nrh37x4TExMhIKuqimEYJJNJJiYmOHLkCPl8flcc+9PEcRwePnzI2toaH330ER988AGRSIR8Ps/Y2FhYVi+Am6ZJrVbjwoULVKtVkskkjuMQjUYxTZNoNEoul2Nubi4EsAB06/U6Bw8eJJ/Pc/ny5ZB7N00Tz/MYHx9HVVUWFhao1+vcv3+fQqHA8PAwQgjm5+e5efMmtm2HmYpBv5ZKJRKJBFtbWzSbzdDnUK1WyefzJJNJNjc3sW07XFQCJeHQoUNUKpWwjMB5Pjw8jG3bCCHIZDKcPXuW6elpms0mm5ubaJpGoVB4jHPfj5rpjba4d+8ec3NzfPjbD1hZWWFocAjPdpicnCSfz+P7HrKmIHU3sOjGIdsOTQSmJOP73QS6lllD9RvkMhoDxgQdE+xIlEi2iCs62I0tYq6HFkmy3GnjCwG+g+0LGq5AWN19htqeoN1ocPPOHZqNGocOHKBSqbC9tcHHH1/iwYN5otEozWaTkZER+vv7qVQqtNvtUHNeWlpiaWkJWZa5c+cOw8PDJJNJTNNkZmaGW7dukUgk0DSN69ev4/s+p0+fRtO0MOigXq+zurrKzMwMn3zyCbFYjNu3b+NLgtGREYQioypdK1KSJTodl5WVCvfurrCxalMpm9y6+YBUsp9GA5aXKqyttTkULxKP5dFUHasj06jbmKaNbbl4vken5XPr+hI3r5WZndnGtWxu3rzDxEQfZsdDUwn59L0SjrwQ3ZTJLnB3ozUqVYdGs43j+gjJx/M7xKKCbD5KMgvJNByeGmT8wCCGIlPod5EVH0lEyOcGMQwNVRGo6ShTJw4zflBiu2zSP2ZgI0hlNOI1m4bZxvZdhORgmi6NRpOOmcfzenE6WFIeLSy24yArMrbjsLm5Sa1WA2BgYICTJ0+Sz+dDbTMYpM97waNMS8/z0HWdvr4+VFWlWCyiaRrNZpPt7W1c12VtbQ3LsqhWq1y8eJFbt25Rq9Vot9soihLSHYEGZFkWrVYLwzBIJBIYhkGlUgmjMmRZRtM0BgcHQ9MQCLnLdrvN2tpamFxx9epV5ufnw7oEoBrws4qihJpoMpkkm82GdZidnWVzcxPHcSiXy/z617/G9322t7eJRqO0Wi0ajQayLDM5Ocnzz9cvkI0AAB76SURBVD/PjRs3+O1vf8vq6ipTU1O8/vrrnD17luHh4acCd2DZmKbJRx99xNWrV5mZmWF7e5srV67gui7f/e53mZ6eJpfL7YqJbzab1Ot1PM9jYGAg5PYDqiFoj23b9Pf309/fj2EYbG9vMzMzQ6PRQNd1VFVleHiYfD5Pp9Ph2rVrAIyPj4eJWhMTE/T394cObUVRGB0dRVVVtra2WFhYoFqtkkqlqFQqpFIpPM8LabBKpcLMzEyo3XY6HSKRCMPDwziOw8bGBuVyGdd1Q0724MGDxONxfN8nl8uxubmJoihhJFO9XmdmZoYLFy7geR7T09O88sorj3HuvXxtoNQEHPz169f51a9+xYMHD9ja2uKXv/wlt2/f5gc/+AHT09Mkk/GeULsuVdqxbEwfOrKEwEbDpG2ukvRrZNJRxsYKJDNDpEdfJjtyiKZTZvbGRVoPLiN8n2q7QcdycGyXlitRsWRkFAzfo2H5GL6ErKicPTvN2RdO02w2qVarPHgwh+cRWhO+74eLYDweDxWIwcFBLMtidHSU2dlZzpw5w+nTp1lbW+Ozzz4jFouFFuf8/Dy1Wi10JAeBBhsbG7z77rtcvnyZmZkZdF3H8zzuzd7nb/7mb8jqGoqiEnS158nYNnTaLvXqOvV6h0atg2P5KLKGJDQ6bYfSdhXHBs8FSWgIoWF2HMyOhef7mB0H15Wx2h6z95ZRVYjGNRTVQVZcbNdHlgRiV+yf2A3ajw498nZubZdottsgVFRFIZGPMjA4yGBRIZ2WyGR97IjCynyZctOnXLPJppKkUwbTZw+iKtCx4N7MNvVmG9dXSOUyxGJQbsD4WD9azCW5UWWrUmF1c3PHzGtQrzm4GZW9LtRw9RFd7zeSBAJc3yOTy1La2mZ5eTlceaPRKJFIJNRmgoSTTqez6wYPPP/dm1bsCtUzTZN6vR5O4oB/DMK+AjM80NRTqRRjY2Ok02mGhobChaDVauF5HoZh7KISgrC5vY6Q3pDEgMsNuNIAIG3bDh16xWKRfD7P1NQU0Wh0lxWh63pYvmEY6LqOZVnh8Xa7TavVQtd1MpkMiUQCWZYZGxujr6+PeDzOX/3VXzE0NMSVK1dYWVnh3r17rKysIIQgnU7vir7ZTwJzNxKJEI1Gw1jb3vYHElhGQT9YloXneRQKBZ577jmi0Si6rqPrOpubm1y7dg0hBPl8nuPHj5NMJqnVaiH4Bpr52NgYBw8exDRN7t69GzqNgwzY6elpRkdHuX//Pvfv3w8X74DPDvjnoO6RSIRkMsnw8DAvvPACS0tLbG5uUq/XwxTzIP6/0+lgmiaSJIVjYBgGJ06cIJfLhZbF9evXw35QVZVWq8XNmze5ePFiGOL3jW984zGKr1eCzwEX7/s+sVgMTdPCsMYgnLRrrVqoapcekZGIGAaO6+G4HpZjI4SLEA0kt4okOkQjEpLsUiz2kz0wjkjm0GyJiCrjuB2E75KQHOZLVRo1n6ieQHguttXCiKi4joXtWTsLjWC7VML3PJrN7lgZRrfvKpVKOI6qqtJoNHj48GF4vwb+p+Bzs9nENE0SiQS2bXP58uUwLPPw4cMhBgQ+heDeMwwD27aJRqM7WrVMvdEgkU6had1QRs8FXYdUMkmhr0AhN0ihkOdX76yjR3QU1cfzHAxdZ2h4iFgsiu972LZFabvC6nKFfL5BImngIdE/mGN8+CjDIwU0TeHTa5cRNGibFpZlEFG7e5Lv3ttU7IC2tMNpheEtPh6CtbU1zE4HSTbwZRlN7WY91esmt2+5RI4nMZsSlz++TbVcp9hf5KWzeQxDUK01URQVfJWHD7a4PTODUFzOnn+JRGWASsNiaamFYmhEIyqNpSqe333WZLVawzRNfO/pJrehd7nNaDTKyOgo586d48OLv+X+/fv87Gc/I5lM8sILLwCEK3S5XGZ+fp6HDx+GIBrQLAGFEYR8BZrh5uYmy8vLzM3N0Wq1UFWVVCpFu91G0zRc12VkZISjR49y5MgRcrkcjUYj5HwzmUw4SSVJChNfAjCSJCl0dJqmSaPRoN1uh7GoiqKgqiqO45BKpRgcHOTSpUsYhsFzzz3HqVOnQg270WgwMjLC9PR0CMoBh/zgwQOy2SzxeDx0zCSTyRA8Xnvtta4TZqcemUyGgwcPkslkADhx4gTDw8McPnyYCxcu8Mknn3D16lUOHz68r+YHu+OUgza88sorjI2Nkc1mWVtb4/vf/z6vv/46g4ODYbhib6y0YRgoihLGo/fuuRHQFp7nhaCUTqfDdgeAG0SmGIZBJBLZFXkQvAK6JYhCCsJGg8W42WyGXHq9XieRSIShmwEQJxIJIpEIlUolBHzDMEKnWDqdJpVKoWlauOgkEoldjtygPo1GYwfAjPD8ZrMZ9kng3AxizPc62IIFT1EUvvWtbzE5Ock///M/s7i4yLe//W2ef/55jhw5skPNNEklY/gIJEnpOkBVhU7LwhTg+yamUyHttEF2kGQPx23h0cZXHITuI3sOCRWkqIpt+djtBpsry1TbMhMnX0Z3KrRtn0K6SEJxiWk6uXSC1ZUVauUStXqN4dExCn0FYtEEBw8e5MGDB2Eor23b3L17l7W1NdrtNqVSKXROJxIJVldXuxTL9jZHjx7l+PHjfPjhh1iWxZkzZzh//nyorAS+EFVV+f73v8/AwAArKysMDg7yve99jyNHu7SRoqjhFlo+YOiQzUUYHS0wNDDM4cnDVBvLpDIGvrAZGMphmh6+MKnUNkimdOIJjVg8ymfXH+D7Ei9MT5JMxhkdzzH1XJGzZ8dwXIlWZwHLjJLKaOiGR7hNdZAHJfZq2mKHdPAFCAlJQCaTIRLxsbdsmq06pXoNPWITT7RJREzi2gn60lHiyRzLi9tIRZ2IASsrNjdv3iebzXJsaohkMoNt+aRSCaLRONWa4ONPSrz/23mMWA5f7VBt10FVaDQaGAMpotGejMh9M0kFhqHvaJmCYn+R119/HV1Reeedd3j//ffRdZ1YLMbU1FRovjcaDT7++GMAtra22NjYCMFTVdXQfLJtm/X1dT7++GNWVla4c+cOV65cIRKJcOzYMQ4ePIjjOBw5coSZmRkqlQpbW1sMDQ2RSCR29hLvZq4FC0Yvd76XWw9M/SDBIjDTAgCLxWIYhhFqmhcvXgzDznK5XJhqH6Q2JxIJKpUK6XQaIQRLS0u89dZb3L17l5GREY4fP87AwACnTp1ic3OT7e1tZmdnMU2TZDIZLibdG1fh0qVL3L59m2w2G5r7N27cCC2NwOp4miOyd6IEXP7i4iInT57k2LFjYZhdQGft5W0VRQnrGWjqvdlxAc88NzeHoijUarXQORVEnzztZVkWS0tLuyJN4vE42WyWWCxGq9Xi7t27mKZJLBYLfxdEgQSLREBxBQ7IfD4fRnsEUUO2bYfUWa9FFNwziqKElEk8Huf48eNUq1Wq1SqTk5Mh7aLreqhJ9u4t0+vEDSyQTCbDiy++SLFY5IUXXgh9Ko7jgNAJA4tFV3HL5bLcXbiHayTwXBPFd7FcH0u1sRwLSVNotjaIbM6i+W3c+hZ2YxvL7OC4IGSNiK6RlyHpVlEaNiktQlGOEbPKKHKU/myK2QdVlkslPCDXbpPP50nEU6HFGo/H8TyPVCpFuVym0+mQSqVCZ3M8Hufw4cOUy2XW19fD3wVRTZZl8eKLL3L06NFwvgXzStM0NE3Dtu2Qmjt58iQTBydASLh+EOxno0gCoUkU+gzOvnSUWCxDX0Hlz79zFkVTGBmNYVljFPpSGIZKKqvT16+iK1kc/2WEJJHNRukvRMlmDezzU+TzGZJ5gWt7nH3pMO1mh0hUwnEtNGUnpqc32Fvs4rTp7vEhdkLsZTh0cJCVTYXVUp225SMrMfAtWm0L2/aYfbBFYmqEQ4eOYChRkgkdwxDcu1/i3t0VUqkmYyMDFItZpo4fIZUvkEgmWN2wWVyoYttRnCbIEUHEiOH6FrlUjKkjYyQTO5vK+OF2CaF0NTo/1EIC7eX48eMkYnFMy+LnP//f3Ll7h7t374ar7smTJ7l27RofffQRt2/fDjnngAc1TTOcLOl0Oty4Jwg/isfjvPDCC3zrW99idHQUz/N44403qNfrXLp0if/8z//k2rVrxONxXNdlfHyc/v5+xsfHQ42r9xWYpkHyTqFQCCmYABAkSQrpnWAynzhxgnPnzoXX+/TTT0mn02EInm3bTE1NEY/HOXHiBJ9++ikPHjzgwoULXLt2jfHxcdrtNtPT07z88sssLS3x8OFD/u3f/o1sNhsCzpEjRzh58iSDg4NcvXqVH//4x6HG2m63aTQaTE1NMTk5SSqV+kLp+kFkjizLHD16lFgsxujoaEg77LftQKB5GobB6uoqzWYzXJwACoUCnU6Her0eUhNCCOr1OisrKyFNFrwCTTsSiex6WZbFw4cPQwvLcRyq1WromA2cm/l8nlgsFlpawavXSRtYBdvb22xubtJoNMIMxkOHDhGLxcI2BjRH8JteyqNcLuM4DuPj4yEXn8lkcByHSqUS0nLBIrZXenluWZZ56aWXOHLkCBMTE6G10lUaDPBdBBISPqosOH7sGHMrZWaWNnYy9MB0RdeJaLrURQd/Y56yo5HcXMCubNHZ3sCXNGyhUmpU0XSD8YzOwZxCVgfXbWFX5lj/TOXgqZd59Rsvcvy5U7i+wPFd+ov91Ko1JKmbVXzgwIHQmTg9PR1mQwYhfYGV22q1qNVqIcUxPDwcOv6DaKLebQt670tN0+jr6+MH/+N/oKoqhUKhS4d43adpSTv4iLDw8MnkYpw+M4EqK0SignRhkFaziaq5PH96mMnJEVQNXFwSUYlDYzqHj03TsTyE5JGLy1RbHRKJcSzLR5J8kD1OnCxSLXvE4l2vohBd8BOwf0ZkV/13d4wAGVnA6JjM0a0s5YqJZzeoOw6mL+PYOh3b4trdVRx0zp4aYOr4MKlYd2Nwy2yQiGt4XgfT9OjrU4mnj7FcgvtzDe7NVVhZqyDkJI7nYJsOUTqMZBxeONLHmcksmYhA2ResHzUgnc7w56+/ztbWFmPj4+Rzua732DLRI11nnKqq+L7P1NQUP/zhD5mammJ+fp61tTUSiUS4i9/zzz9PIpEgFotx5swZDMNgfn4+1F51XefAgQNMT09z9uxZdF2nXC5z5swZVFVlaGiI5eVlSqUSruuGZQfcdqDdxONxTp8+HSa/BJri4OAg3/3ud2m1Whw5ciQE8VOnToUe9LGxMaLRKMePH+eHP/whExMTzMzMsLKyEi4AwQIEXe7429/+Noqi8N5774XRC8VikUKhEGZFJpNJbt26xfXr10OA1HWdgwcPEolE0DSNyclJzpw5E2aWRiIRzp49y4svvsirr74aAuiTJJgwvZmQfX199Pf3h862YEHYuxthYK0cOXKE7e3tcEwDLj+VSoWLTbVaDWPl+/r6KBaL9Pf3k81myWazDAwMkMlk0DSNEydOMDAwQKFQYGJiAuhGqgTRGUFoYW+dBwYGwrjhoK+z2SyDg90QsUgkwtDQUJgpmUqlQk45oEACh1rgQ4jFYrs07UDzDpy26+vrQFczDDhcRVGYn59nfn4+zMh8WsZfQMGNjo4yNjYW9mFwrhAyeIGGJFAkODJW5JXTk1Q2l9mqVPEUlbYjsW3qaJ5FhTapegtte56YuoZh1omoKqYfY61mMrdSIZFMcGQox7FiErVexgeqrofYXqW1skxxYIJ0ZqT7wFi5C6C5bB7TNFFVNeT6gyiYgFYMlJmAVsxkMhSLxZD7DhKe8vl8qAD10mR7RTMMjhydRBKCiG4AAiE9oiREmODnoaoe+ayC73XByLVtHswuYJkwPDxCX38CwxCoahdHPR80HUzXQ9dl6m2Pz27P06x56LrGiRNjxGIKiiSIxMB1LXzXRlF0ggep92TSI3y/+7gxFwewus95Q8dFYCPY2ILPrlb47eUF7q5LlBwNB3CEiRAdUlGPc88f5vwLaQ4MCDZXXcrlCpbZwfVdBosDZHMqpi+4fNvhnQt32Cq1aLVcbEdFMXSEIshHa/zlmQTnjvcz0JchYshIkkBSCFVtgfcowsX3KZfLOxEjfjelOpujZXbCjEKAeKSbnh6NRsNsw42NDarVamimB463bDZLu90Of999bNKjSTs4OEgqlQq5zN7ohq2tLTY3N0PeM5FIhBpZIpHA8zwWFxdxHIdkMkkulwudHsHeHrOzsxiGQSqVCrX1wKPebreZnJwMNadOp8PGxgbb29tUq1UsywrLDUzwwLHVbreZm5sLo0LS6TTxeJzh4eFQq2w2mywtLVGv1wHCZJdCoUAsFqNarXL37t1dmnChUCCV6pqxAeg8KbGj9/N+8qSU4l7nbJD4Exx/bC+NnuNASFOoqhr6K3rH7RFgdV+dTic8HnDFe+vTe53AR7GXGw/KbTQaj7Uh8FPs9aEE4ZSu63L9+nX+8R//kd/85jfhAhr4Nnqv32g08H2fyclJ/v7v/z5UIAKue2+fPz2GPnB6gYvcnf+Ox+LyChcvfsCvf3uJuqdjtpvQWEW3SqQ1i8nhIoVMgozqE7HK6JE4d7Ysrtx+yNrGNicPD/PNo/0cTEjEmjWEJ9GWEjTVLPrgUcanX0MfmUQY8qPsnj+QPG2LhOCRhjtw2BVBj5m/c190t9PCR2DbPngyK0tN/s9/vMelS7c5efIUL587yth4jlxaQ8gCFwnHFbR3Qptn723wm/c+Ym11k5MnJ/nhj75FxJDRdZBEELvHzrsAujsiBjVRHlXI63l3AQUFyKbhuck0puXQ+qyOudGhZguEUPAVA0e43J2dZ7g/Qb0uY7VdZDmOHo+D77PV8iiZHrYnsbzZYbvaxrQkJElFUyBqSGgxGM5oTB8bYrygYmhdk8ENlpdwf4TdmXD5bI5sJtfN6NoxJSJGBL3vUSSCLB5tGpVMJkkkEuGeGsHECd6BXXt3wKMbvRckggkRTLrgN8EeIkBo6gdaliRJDA4OhjGme8PjhBAcOHBg1yIRODxTqdRjgGAYBiMjIyFAB5tN9XLkQR0C7TyQIGuuV2OJxWIUCoVd0Su9iUfRaJQzZ87sC3hBeU8ChS+ScPMk6dW8g/DHYBz2Ptllr6YZ9EXv8SCaIqhvb6JNMO57F4T9QG9vtMZ+5+238dST6KPexaKvr4/XX38dwzDC+3S/awZ87ujoKP39/Y9liv5u0v2dhI8mfAayKV4+cwJFgrc/vE55s0a77uJ1BM1IlPHYAexEiqXKGqPpNOu1FteW6ny60ECXDUxXo9GyaWsSEWQECp6Q8YRCPJFGM2IIWXRh5/Me3P57yudRd/v+Jjhv57/u7iBOl0r2XWRJRlMMdDVFecPhvbcvs7q0yOnpowwO5VENHV2NoCgyGxvbrK+XuXL5Djeu3yURTzB5SKOyDSLbjUxh10YDvVngIQh2QdsPATs4KUB6H0UWpDMwOZmnbEdwxBazm3UatoPnC4Qv0PQ4tY7E/GqHcqlMp2OGoUpClshkMhT6kwhDRdU1zI6M70toio8hORwYjnH2WIGBYhpDc1EUOXSI+H7wpOPdnel53e3CVVnCFwLH6U5EWQgkIcJO3nX+zgTojQHu5RP3M817J8p+YVW9EyQwW4UQu/ai6NX8gu8Dvrr3t70xpEF4XK+GGJzX+x5sIhREUPSCQwDiwQKxF3QC6qG3rQHIBQkeAbD3hig+LUrk9wHo3rL2XmMvIO+tx36abtDGvWMUtPlJ23o+aQHaSzd8Xh1767lfeU/qq76+Pl599VWef/758N4M7pdeMQwj3PBqaGjose8/7zpPlZ22BdseqJEYDdPF7tSZb9awhEpLinNlsY662qZV3WQkn6DTNllpR5By48RUD0vWKZuCsqN1nxPpK3SkGB0lipYrQCIJssDfo+B+HUSWZBzbp1arsr1ZwrMlRofH0SWFjz+8ietbCElHliLIsoYkedi2g65meP1bb/Dpp5+x8HCbh7NVkoksfvfpx3skAL9HXyiP9hzpFQ8ZDxcJgY+qCfrycGYqBgI6rsn91Xo3JE/VicWyrKxZLK3WKVVNOu0Omu5Rr7VwPJd4wqO/7HHqhSx6LE6zYeObNrGoTDGn8tzBJKeP5YlHpa4hIAWp67uXkkft2OHgCNI7dyag6G5M3quByTs3bK8ZC4+b0Y+KfqRhPn7Z/R+A0GuyB5M5AMzeawZaeBDY36uJ9S4A+21s8yQJAD6ITuk9HuxNEZjVvVr8fovTXidNEPa4F8Q+D4z+ELIfQD5tR7xAEw/O7V34voqNnZ5mWTypPkEbnja2gXUQ0FzwaN+V3gdYwKPIkCBL8Pcfi5567XS3IsvISoThQZ0//+bLxGI6ly5f5+HKBm0HVqsmHcckoidpllyEpyBHEgxki0z0JxmOucSVBi3aVGQABWGkUVJF1EIREYniSd0kFAFIu/HpT1okWcZuuSwuLrKxscLEoSJ//tpLjI4nWVpb5pNrV1lZKbG2soyuR3n1Wy8zMtrHyPAo0YhBMq1w8+ZnXL12hfGJc2Ty0S90XSXYjClgjQVd08jDBhRkIaHoPpomyCUFnhdjoxxneWMN09dQhMry0gayEqVU93DRQdExXdBiEVTAAVY2mki3FEqVNp2OQ0SFXErh+eeKnJyMko8LojJhaMs+ynW3hjsDGsxhb89JkiwhyY9uvoAD7/72cY1qrwTAu99uYL3vTyqndyHYaxL3UiK9eyYH2v9+dXmSBKDxtH2EI5HIEx/4sLesveF1wf4MgSb3eWbk7yt7+3A/bXvveZ8nvW36qiyA3/V3e9vzpLL2jkNwbL/jwT0aRIF8VdJlIruUhUT36eBCFkyMDdPX18fzp05z5bMZZhZWKTdtStUWzXaTiCqRiEXoy+cYKqSZnppgOKXgbM+zfPc6sucCgkS+SP/4EVKjB/BVFVeAL7OzLemj+N4/BnY/GoeduSo9ZZ48dsRHkgTNVpOBoRyHDx3mGy8P0z8oc6SV4uy5Sd5957f84j8uMD42yv/15ssUB1R0DVrm/9femfW2bQRx/De7JHVYkmXLStLEgY2cRdugCFr0qf0A/fx97WOKoodzyodI7k4fuLx0OHZqGw6i/4vpFbWXyP/OzszOwK+9FwzGM44/nHJyeozq+THBSyw8CYV1NGjQENJgNVWsJHTEcDgVXjyb8j71/Pb7EVnmOUmV3B3jTQ+kLaFqGK0qvPrjiLOTjG5smE47vPhuyjfPtjm8J4zEh7Zu5zJ7ldv/m8QqN7DL4jaM+Tb04UtGkfxPGfQ7PH9ywP0H+7z66zWzuWN2ljJPM2ID3cSyO+yzO+yxs9Vl1DX4O2N2p3v0knAc3HawnS2wEU5CQOggI5UhKi62z7w5SONvGZ2lCHMR8fLltzx98ojt8YDJHYOIYuOcOM7p9yzWOKJYMVKshQLY2HNwOKDT+4nTD547d3cQMaD+oxTYIO12FD1CFOtCTnZB+d1l1Fce78ec+n3ezhz/vJ6TnuVk6ZzI5Cy2WKovPMLxzJHElnuTDl8/3eXHH3Z4dNcwECVLj+klw7ZrC8XD4hcrPG9Q1ysQfla4KulyndR7XVinhvqUem4Tblt/zoWW/dWqQAxYFPGOUVd4vj/B+SKMs/MeUYfFs5UYIhtUcl6R7oDxg8d4zTFRHxHF5zkOwla4OS83I2H/XyggYhADBwdjvBuDQBSDisNaBXL2pmP2H95nMhkXwwz6HzEO75W9yYh473LCaiDtRcIG0yorYn/hldgIX03AJHB2OuLPv99z9O8pH2ZzMFERontF+16VzDt2tns8ejjkycM+z+4JoxiseM6yHE0aL2pDRdJcdf05YysDuG6wwQaXhWldLdu5ys8KlzdRxQJqTSEhYlDvwCuR5qAe7x3eFamzrE3I0pxOFAECVhAadqnKdeD2U3bZc0VwDuJYkYVDJZ0oYWso3H8w4edfvmd7Z5duv85/GYkQ24jcFrFEVtsW17SvDcdEH3w1fahAKHRQPmi6rS+8OnIgEzh645idzHnz7i2zE4fqACUpwjHSPn0uktKJU8bDDrvDPv1YGA8jrJQB2EvT48KPthzkCi8Ex/bWSEI7n8dKfRO4iA71U+u7ynqvC1c9/i8TywZ5JRjUfZmkLOyMcPVREAnkLgakPphSQ3BaSJ0lX1Tfra5vDsuj/PjdShFEKjLLz5erct3UXNiOxqHY1ijLpctVdbRnpfbUFm0dM/RV5zX8r4Gwm1Oq1CtDmmWczM9Ic/C+DxLhG6RddsmSkZiUTgz9OMEQLPrVaZ81P9EK0mYVaQfRfPNy1tiQ9oa0rx4e1dILCmiQdhMSSLvw9GrmxamhqtWhlhLNeHY3iYuT9jL9yoo+l4Lvsl9euadpW/DqO13r/pqs6/lbIu2i4hV66aqTDftuyCWZVxqNOnFocxJCqsdgzKBtbvzYjmAVaVN7j7Ru3JD2BhtcM/yCJ1VBJqtIG9q+86tk56UN88q7rh8XJ+3lHl+GtLVSCrXHeRnSXuE90tzI1AJ6XWkhezvKTM4SxPxCxaHVVdviWqs/ylrqTp2LNR8vFq/L8rDBBhtcJcp84bBO4ipIun77VdcLU1+SDWpxQdJGWVl+kcXjP3a0K4Nt4pWSAAAAAElFTkSuQmCC;" parent="1" vertex="1">
          <mxGeometry x="395" y="120" width="355" height="39.88" as="geometry" />
        </mxCell>
        <mxCell id="VienW1UAEBqyCbYDbcf2-68" value="Linkerd Service Mesh" style="text;html=1;strokeColor=none;fillColor=none;align=center;verticalAlign=middle;whiteSpace=wrap;rounded=0;" parent="1" vertex="1">
          <mxGeometry x="470" y="245" width="130" height="30" as="geometry" />
        </mxCell>
        <mxCell id="VienW1UAEBqyCbYDbcf2-73" value="" style="endArrow=none;dashed=1;html=1;dashPattern=1 3;strokeWidth=2;rounded=0;exitX=0.207;exitY=0.468;exitDx=0;exitDy=0;exitPerimeter=0;" parent="1" target="VienW1UAEBqyCbYDbcf2-72" edge="1">
          <mxGeometry width="50" height="50" relative="1" as="geometry">
            <mxPoint x="434.03" y="291.96000000000004" as="sourcePoint" />
            <mxPoint x="434" y="242" as="targetPoint" />
          </mxGeometry>
        </mxCell>
        <mxCell id="VienW1UAEBqyCbYDbcf2-72" value="" style="shape=image;verticalLabelPosition=bottom;labelBackgroundColor=default;verticalAlign=top;aspect=fixed;imageAspect=0;image=https://linkerd.io/images/logo-only-200h.png;" parent="1" vertex="1">
          <mxGeometry x="429.63" y="235" width="10.75" height="10" as="geometry" />
        </mxCell>
        <mxCell id="VienW1UAEBqyCbYDbcf2-75" value="" style="endArrow=none;dashed=1;html=1;dashPattern=1 3;strokeWidth=2;rounded=0;edgeStyle=elbowEdgeStyle;elbow=vertical;" parent="1" target="VienW1UAEBqyCbYDbcf2-74" edge="1">
          <mxGeometry width="50" height="50" relative="1" as="geometry">
            <mxPoint x="434" y="292" as="sourcePoint" />
            <mxPoint x="484" y="242" as="targetPoint" />
          </mxGeometry>
        </mxCell>
        <mxCell id="VienW1UAEBqyCbYDbcf2-74" value="" style="shape=image;verticalLabelPosition=bottom;labelBackgroundColor=default;verticalAlign=top;aspect=fixed;imageAspect=0;image=https://linkerd.io/images/logo-only-200h.png;" parent="1" vertex="1">
          <mxGeometry x="476.5" y="235" width="10.75" height="10" as="geometry" />
        </mxCell>
        <mxCell id="VienW1UAEBqyCbYDbcf2-76" value="" style="shape=image;verticalLabelPosition=bottom;labelBackgroundColor=default;verticalAlign=top;aspect=fixed;imageAspect=0;image=https://linkerd.io/images/logo-only-200h.png;" parent="1" vertex="1">
          <mxGeometry x="534.63" y="237" width="10.75" height="10" as="geometry" />
        </mxCell>
        <mxCell id="VienW1UAEBqyCbYDbcf2-77" value="" style="shape=image;verticalLabelPosition=bottom;labelBackgroundColor=default;verticalAlign=top;aspect=fixed;imageAspect=0;image=https://linkerd.io/images/logo-only-200h.png;" parent="1" vertex="1">
          <mxGeometry x="588.63" y="238" width="10.75" height="10" as="geometry" />
        </mxCell>
        <mxCell id="VienW1UAEBqyCbYDbcf2-78" value="" style="shape=image;verticalLabelPosition=bottom;labelBackgroundColor=default;verticalAlign=top;aspect=fixed;imageAspect=0;image=https://linkerd.io/images/logo-only-200h.png;" parent="1" vertex="1">
          <mxGeometry x="640.63" y="237" width="10.75" height="10" as="geometry" />
        </mxCell>
        <mxCell id="VienW1UAEBqyCbYDbcf2-79" value="" style="shape=image;verticalLabelPosition=bottom;labelBackgroundColor=default;verticalAlign=top;aspect=fixed;imageAspect=0;image=https://linkerd.io/images/logo-only-200h.png;" parent="1" vertex="1">
          <mxGeometry x="483.63" y="289" width="10.75" height="10" as="geometry" />
        </mxCell>
        <mxCell id="VienW1UAEBqyCbYDbcf2-80" value="" style="shape=image;verticalLabelPosition=bottom;labelBackgroundColor=default;verticalAlign=top;aspect=fixed;imageAspect=0;image=https://linkerd.io/images/logo-only-200h.png;" parent="1" vertex="1">
          <mxGeometry x="539.63" y="288" width="11.75" height="10" as="geometry" />
        </mxCell>
        <mxCell id="VienW1UAEBqyCbYDbcf2-81" value="" style="shape=image;verticalLabelPosition=bottom;labelBackgroundColor=default;verticalAlign=top;aspect=fixed;imageAspect=0;image=https://linkerd.io/images/logo-only-200h.png;" parent="1" vertex="1">
          <mxGeometry x="591.63" y="290" width="10.75" height="10" as="geometry" />
        </mxCell>
        <mxCell id="VienW1UAEBqyCbYDbcf2-82" value="" style="shape=image;verticalLabelPosition=bottom;labelBackgroundColor=default;verticalAlign=top;aspect=fixed;imageAspect=0;image=https://linkerd.io/images/logo-only-200h.png;" parent="1" vertex="1">
          <mxGeometry x="428.63" y="290" width="10.75" height="10" as="geometry" />
        </mxCell>
        <mxCell id="VienW1UAEBqyCbYDbcf2-84" value="" style="endArrow=none;dashed=1;html=1;dashPattern=1 3;strokeWidth=2;rounded=0;edgeStyle=elbowEdgeStyle;elbow=vertical;" parent="1" edge="1">
          <mxGeometry width="50" height="50" relative="1" as="geometry">
            <mxPoint x="594" y="293" as="sourcePoint" />
            <mxPoint x="640" y="262" as="targetPoint" />
            <Array as="points">
              <mxPoint x="687" y="262" />
            </Array>
          </mxGeometry>
        </mxCell>
        <mxCell id="VienW1UAEBqyCbYDbcf2-83" value="Mongo&lt;br&gt;DB" style="shape=cylinder3;whiteSpace=wrap;html=1;boundedLbl=1;backgroundOutline=1;size=15;" parent="1" vertex="1">
          <mxGeometry x="690" y="170" width="40" height="60" as="geometry" />
        </mxCell>
        <mxCell id="VienW1UAEBqyCbYDbcf2-85" value="WebUI" style="rounded=0;whiteSpace=wrap;html=1;" parent="1" vertex="1">
          <mxGeometry x="659" y="295" width="50" height="20" as="geometry" />
        </mxCell>
        <mxCell id="VienW1UAEBqyCbYDbcf2-87" value="" style="shape=image;verticalLabelPosition=bottom;labelBackgroundColor=default;verticalAlign=top;aspect=fixed;imageAspect=0;image=https://linkerd.io/images/logo-only-200h.png;" parent="1" vertex="1">
          <mxGeometry x="662.63" y="290" width="10.75" height="10" as="geometry" />
        </mxCell>
        <mxCell id="VienW1UAEBqyCbYDbcf2-88" value="" style="shape=image;verticalLabelPosition=bottom;labelBackgroundColor=default;verticalAlign=top;aspect=fixed;imageAspect=0;image=data:image/png,iVBORw0KGgoAAAANSUhEUgAAAekAAABnCAMAAAAT3Uq5AAABUFBMVEX///8AAAAr7afX19fs7OzLy8v09PSgoKCTk5OWlpbp6ekZGRmlpaUvLy9FRUUWFhY7Ozt6enqCgoLj4+MPDw+rq6u4uLgqKiohISFtbW34+Pgi2Lgf0b4byMYcy8QGl/Ag1LwWvNEl37IYwcwRsdoPrN4FlfMNp+MKoOldXV0Lo+Yk3LUQrt3w/vkaxckezsATttYVutMInO0n5a0cysVgYGCT9c457qzq/fa8+eF988Xb/O/u+v3K+udT8Lax+Nyi9tVj8bpOTk4Aj/eM9MsAjPly8sAA7KHCwsIl5qvR9/DP8fXN7PlT5sBU4sV05NFS3Mpu3dZO0tOM7tE9yNaM6Na77+Rby9+L4tu66elIwONHveWJ3OCy7+FFuuiH1uVDtO244vCF0Our6Olft/ePxvpVrPrL5f0AgPpBpfyEyvGkz/y32Pmu2fTS6P5r1d4wgQWtAAASGElEQVR4nO2d6V8TSRrHIYmB4Qggd1DAiAhiUAwQjhBuOhnRYdlddpzZcWU95gL3/3+33XXXU091dfNJYjKf/vnGdNfV/e26nnqq6OqKpr1q6mwXv1XcTJX3IyaTqM21tZMKtFk0bxX3y/4d79DyGSTqKB2UCeiUZ9bdvUOP3kvtIJ9Bos6SgOmzru6pd3Z35K1UautbFTBRY1SsplTtSKC8rrOvICHd6do68zTWB/TydlW9DGp7os7Unl6ty9t+w32o4U9G338RFfWGOnW2mdJAnyTDsb+MiicpmzzbTDtRB2hr36C3C7przvnQ6KCLZuREbar9qlfeNK5ulxHWBxEjJ2pDUaJeatu4cwBZHxgd9F6VRk6GaG2vrUPBsWq0wlsn4aR3z2TkZNrV5tKmTzuGOWQXTKO1urupfgXlZEDe3trXGmjP1j5L1qLu7mtTLy/pq9tdu4cq6lTV6K6N2TWp+HuHic2s46QPsr0zA9rWjj4y2wRXkgFZxwjUWqS7BtbQxGbWqdo6U8l55QMjxL7+MShK3BLaV9tV059Er7VeGZldY5ixDvqgmjTmbSEyCUZWo/R1SWx2vWOARir/dhWNnKjl2qTjL8yAvaljNLtffcblAzU7dG4uT9yPvrG25VgKWZQyhtQGLmAMB5+LEt9DTKeJWie9/S2b3TWcJpuz602dtTJO929pyZea/DCJQvSmpDuDIQMvYPoyKz6ccXHjGOjnU6WE9DfUm0IBsMbGzhow78Qxu6Z2E9iFlwqFgrUY6VptNHKZs7XaPcutewM9tXxo5FFbTvnahD1qemIijZclbReeDxKjLxNaZCzSqDMK1NsVXyUNCWYn0WbX2AB7X2/Cq3tgWF4qBBnZStE71t09NR6xyPeGu7u7p7PInb6cf6c7F/bN9A5ZciJxjyxRe4J0vzOvZ6eHp/qtmjoyv44+LMbg8NFyz6j9C833DA6BpCf9KNPjo9hbsOjtyoyvlZKngTowwu2VHVbt4om+MqL9KBVILjbS491E0Wp1fpIEvm/eyQ7SdIbt33uNhkDq5wa5kUNjTVhi5XPd4RozHmnSHvhowlbq+9Y4g70167MCvZ0hmoc2MXN2rddaZH8ONIYrQX+gucxYCnFEi90bqcTstU+aOEf48y9bIzM008aNdLf9a2M5do/AG/ccoM1HGg8N3Y93SpmpsEiTju6K64KRNlx9zYGX7jToobNrhHMwxgsnnc1Z3iSqARp4yKyXw+LprR0Be2fDxg0ODaki98bYPaMZ+c5JGj5SryN8D1bo9Fh4pCPbqEXTxTzRg+D/uiXbw7pr3UCKVPwUrNdkEv0DzWUeL0ODSPPGOxA+fIpA2mxBR0Wixgt1kx4AMVykkdbGTdr/BiNU64sHVMH/oUkM8xIDEyrMrIbMrn9QcjHVBNLDlqFKfNJpkapZ35ykNyABJ2msC3OT7h5yj3EuXlB1Mfu03vK6vRCw9UwtABmn/03mgqgJpG1pxSadzYWkyElvTKMaMXtQRrq/t0fRyEa/UnKzKeakczLp5dzglMZ/0taKCTHSs7C2ctbmwKu4qY7TPQ8xqxnuR60njXW4XfFJS9DIWF+Qjj7XYaQn+8D1tBhNdg8bnwcnDUYfmdp9dajmQn05G2j9hX2Lhnt2bXbX0P3oYp1kM4uXoSmk8fYsJun8dEiNlqSjWzE4abNwNUHN7EBw0r6yE3IU6pqkXj4MNAPsHq7ddWB2ba6CwfXMwjrJBy9DU0jjU62YpAXoI3TI00jSYp7XfWTcsZL2H1o2BkfhTcvlw9XVeX3M7XOL4IWgx0GM4WBzz7yfUUtJo+1tPNLCYmGMrKgaSlpM243OIIy03xiI/hp7YKnL1VnNFsoduMFiJLaeqTfhZncNRnj1F6ureBkaTFo0g8g0MxZpMbQetBSlsaSFPQASDSfdlRYPHNpVX65oOOTqBRh4pUzvbeDjb1b84oFerQutIX2fj6IGzeYsDukBARqOn7gaTJonB+umg7Rs9+22QV8FtRXWjSXAQJo6MCKDYxGQ2bVmDC/X8TI0mnRm0vrkMUjX+Puzzc0bTpoTi0ta2ljDjGWFumi8zWWLXaMDB3LPrvfk7LpUT+FlaDRp2eNBE1UM0gJ0v31M22jSjCgcFThJdy2zgmyEZF2o10uEtechQ2xgS/HODJJwWePASIT1+KVSvd6iOq2sdcBAkUmnuTFjKqTzazDpUfYAy6ARcZMW7XdIYVdKvgp1zBtw17SlYMsaYJCNz67LhSCflpEWy4k58NKiku7jry50ltourbecDoYsBxLSpUIBMYVBzFaS2871zAIBbfMuajxp+ZGDNCOS7uPD4LHQ5d/2Ic37mkl7kJkCkeEjYC5KCZKIFwJwPzK667c0F4t3URNIy0GKbgqJRlo0CeGgG02a9znQuSUC6S7+uHbryXxhxedcACvHoIM+3Iw5u4ZHjF7QXFpIWgxS9OY3Eun8Ef6ZGGos6Qw3gcARdBTSGyyu/dOcXyHSSENs+0VwbiTqfqR9HGAV7ILmYvEuagrpPm4xW1ZHspFIC9OYMXQHaixpMYyEN6KQ5m0Y6spA9ED4nHDBDppVT2ggjeV+dNEKnxOdtHT9Ubu9KKSFsdvpwshJ53BNm9PbENLCImc4I0QhzTtq+5DsBSS9je2CJwKLkdjmHj3uibhzYXxPqppDWr465YVHIC2cBezVg8vpiWCwsZLO8Oa3e8x4sCikeRjMZ4XqBXX7ESvHxbJCCwy+wMAL2WmlzbiqctfdbCu9i0Qd5gNoxSrq9iMTVpcI/otO0lNwgGRZn67dHxJxTOtHFNKjzC64bPUzmqVuP5J0vV7nx3mbe2G3wJ7pkM091cN6WZBeb6V3kSA9yk3/0irqJC0GYyG1Q8jtRwbbb8y7SPcdGjQ7/Siks+yztptu1x8EviAPhI9AsVSvl6oBUGyPluF/ZLofUb/D8lnV/2QE6csHLfQ5kf2yqJ+iIXaSVuSu1Heu0yFCTNeNIf2QIhArx0Vq4qimdsyZFHacJGYn2fQO35BUvueXLrkPE17KZpGWgyveL8Yh7UbtJG1s+3CSxmZJUUhnGOmctfVepW4/Yj2xyGwcf4cBiycebktBvIX3WCKSNM1lHS9D80jneVfNP/VYpJ2oOellXBsmNgfpZXR9NNKIjD2ZvZ9+TLx+HjpJb1tPNQkOQQHt/C+Q9D9oLq3xOVFnVQIgSzsS6UHRWTvmWZz0aB6XGSOUdG4cxxSFNC+//R0y0o/57yI1cRT+qYUyvI3Cd1VfFWgqkHSLPBHUiz38NVJzVxTSk6PSTykc9Z0tJ4gGe6zmrSik+ZAE2SbI9GiVSJKeoZBU0sBARndaboO1a7W7vlqBpEEuuppJGlhFI5Ae81vQPrFRLtQeemfSY9MjXHwePWVfNItCetpZ3kePiR7x3xVmzVJIQ28DxnRLs6V56ozriiXyPcjlW5AW0EgP5iY9RKqW3KITtsZxd2uo7I+Fkd3uGhRnhcP+vawB0sX5mcDEIUlvVa02zi2wTUvcuqJpSNIwF11NJS2dR4LrTtJTbJYjlj2RnX5CDbF7i5ys478IpHnx++1BXj4iWuO/K8yaJUjvlRWrGZw+KxPscl2eIHnFEhGkYS66mkta9o21CKQH4IUwP47GrHCMuzJqjCcCZbAmSTNr1o/8wm69Lo/HOIHRi/sCtEqaJSJI/2vtG5IWu9MHs3E8BgWAfptraKPWsnj7DR1kuGJ4F4W4DC6sra299P/x3xW2g0qSJm5BctQNEyC7qsskkLj3jiUiSb8Mcll7iZeh2aRHub1xI5YXsBi2G7uouBpEuo9bbS0vwE2amw3wrSZUCy+p+O/K7CxCWrJGvBB2D2mQUhhpogW8DM0mLavnOLcZGkEwz37R7BtGTaZGrU8Lqy0+cnaS7gmPT/X85UIgSXp9dt3XrCD9PbOCiGptNuEsSOkXfuEdSWN9VpJeoMLL0HTS0ioab7eOY1tW4zwR+FSrH03JRVoMKczHUvQzRfAT/11k1qx/8wuQNHJ4Nw8iSbNEXvMLjPRzvAzNJ50HJ4XE3oGHLxw0jHSGm2qM3XeBHKRFixDq2N/103MiUdsq1MaxKkkzK4gknYJ/TYUFUUizRARplss3Iy2nWvFIZ4V/ADrbbZx3kSgfZuMKJy0PyQlfZ/35CZEkzWwcKmlywtQb3XdIXdbgQSRpkoRKmubyBC9DC0iDZafoO+XF/mSscA30IxO+a8hUK4x0Ru6qtS9jEb1/ShCI2maSZvauqy7tBBPP29yCQQDpx48F6Z9JLk+f4mVoBWlpFY1FuisjDkVAakwjPQZ5+430E3bSo4odHe/jpd4/JRK1zSdNpr6SNDWCBBhtZyEoQajeUUOJSpoKL0NLSI+qZ4nEOdFGxDOtEnc//cIkjTo4siJgpPP5zPiGMvywnGUm9f4Z0Qf+u0IhPfoPv8AwzhOM+FkIPMgVj3PNEpGkaS7P8DJw0kc9iIxXf0fSysAl3ilVwiph9qGcdC9WcF/W9elQ31Dr6RfTAyLl3pFl9cuVVly7PlAEorZV1qgkaWbvYhjhmWW7ZhCfNEtEkH6/RHJZwssgj43BlAN2i7uSVlcM45BWRnPQ//vOp1Sh/t6if4HNcIRTqnLuDuTDEpFCmho5JGlmBfnIfhtnIZhBuq6ZOUYhTYWXIZw0JHdn0nl5Zmcs0kprAMC5PQZhcmGkxfoZ7MXcpHsjnDz34dXS0qulV6JdrbyEpKnRbFZgNN0SXgdBZpUgBukgF1+v8DI4DloFp7bembTSDptzppDTJBXU4K7b/89ymiS+L4sfwgDPYEgPWdMn2nCeRRbo0ysiUdsq1Ga28F9+4TWzd31UIoEj2g/XQZBrZhJTSFNZCrER+iDAmsBPiDWN0WxGZPfIF+dZIL0xqze4iZsjBZ1h/BNimd3S0tgyQw1c6ciGHCDsc450aqhPei4gMCdJL0DSzN6lkgY7euowyPVzmsg5v/CB5jJnKUQt7Ekgljxlgkx62GsM+cLZJ4UZN+kt1EbVJaa74Krz1GejLFl62dLs9OGfR8ipz1M9kepzoKU5IlHbKtSY9USSZvauj3o89SyEOgxy/YSmIkh/WiS5LNpKcW/Y/izmUJSc5I71TAHq/tCNsGTUg54Cnw1ubVgHNsHLNo9HyIyENqw55GTIoH5ajVnk0ZAjLMb7YdJjw8sjvRNxDu7/skgkSTNrFiT9+COMKZ0GSzDINUtEIU10bC1GNmMTQiVb67G0WOmB8fC5bT7dM2BxwMmnJ9IhA5v0eA17r5m+EGHJZe+Nhxyz4N9FK6mRTSYb7VRvqU+nx4F+578rT6iNQ5Jm9q639j/FUmJBJGlmjpGkgzwWj22td6JW6DMhLRhUKKRnf/ALrx8Td79HKx7yZ+wOCOvSIxrkHb98y0xiOunjT5UmPkcip75+OT09FT1o5Sk1pUjSzN414yNF/qjOGSVNdM2v3jKTmCAdZPH7r818ikRRdLP4m2y9KaMlSZrZu2awlekuYiAtsSCS9BIg/fm30z+b+ACJIutGtKuVZ9TGIUkzK8gMs5OYf01rv8CCSNLUULIkSCsZJGoTVZaojQOSXpjhcyrTkeydSZrqHIZM1D6qUEZzkjQzpQjSKeOUfh5EkL6ZS0i3vSqvqCnlM79wzlzAJGnj9DlG+rlCmioh3caqUEaLkjQzmj2wH2fzmgWRpKlJbO5rS4ueKJYqzJolSTN71zU4ukjprl+zILf8ws0xTSWp0+0sZjRTSFMfsNtg06W2hCW6ayUI1Q1J4vhLywufKIbyfx77rE8laWbvCjBu6X/vkG/dUYMQ3QQpnH5OZlbtrs8+pk/8B8P4jGDc07dSs9n1+TMlSKCbUz+BhHMHqPLl+Ib//5xZNm8N31CiwJGMBVkSpL8u/p4MxjpO58wF7Bb8ZXmhAyUIV1KfO1AM46v/lS0HfnvlH5mX2K07tUTtq6/MaPZCBV3V/kppgQW5caeWqH31KzOazWoNtvYXGQrMJJaQ7mj9yoxmkjQ7Alge8cxILyakO1pfqblLkJaeJ+IvpxWYXS0h3dn6fHzsUzxe91LGOSfMaXAl8BFLnIc6X+eBF9jpQ49uzdG1HxjDV4jp8xqLm6izdDt36pP2zIOgyRHP3srp6eJtUqH/GvrjeNX8M1lUu2crx5+NQ98TdaoqH+0wr5LVyUSJ2kX/BztGKbBVSEjyAAAAAElFTkSuQmCC;" parent="1" vertex="1">
          <mxGeometry x="620" y="335" width="106" height="22.33" as="geometry" />
        </mxCell>
        <mxCell id="NNIVwGtBNL9wqv9o0g3V-1" value="" style="endArrow=none;html=1;rounded=0;exitX=0.75;exitY=0;exitDx=0;exitDy=0;" edge="1" parent="1" source="VienW1UAEBqyCbYDbcf2-85">
          <mxGeometry width="50" height="50" relative="1" as="geometry">
            <mxPoint x="659" y="284" as="sourcePoint" />
            <mxPoint x="709" y="234" as="targetPoint" />
          </mxGeometry>
        </mxCell>
        <mxCell id="NNIVwGtBNL9wqv9o0g3V-2" value="" style="endArrow=classic;html=1;rounded=0;exitX=0.769;exitY=0.833;exitDx=0;exitDy=0;exitPerimeter=0;" edge="1" parent="1">
          <mxGeometry width="50" height="50" relative="1" as="geometry">
            <mxPoint x="309.97" y="264.98" as="sourcePoint" />
            <mxPoint x="420" y="265" as="targetPoint" />
          </mxGeometry>
        </mxCell>
        <mxCell id="NNIVwGtBNL9wqv9o0g3V-5" value="" style="endArrow=none;html=1;rounded=0;exitX=0.75;exitY=0;exitDx=0;exitDy=0;entryX=0.145;entryY=1;entryDx=0;entryDy=-4.35;entryPerimeter=0;" edge="1" parent="1" target="VienW1UAEBqyCbYDbcf2-83">
          <mxGeometry width="50" height="50" relative="1" as="geometry">
            <mxPoint x="670.5" y="235" as="sourcePoint" />
            <mxPoint x="683" y="174" as="targetPoint" />
          </mxGeometry>
        </mxCell>
        <mxCell id="NNIVwGtBNL9wqv9o0g3V-6" value="" style="endArrow=classic;html=1;rounded=0;exitX=0.769;exitY=0.833;exitDx=0;exitDy=0;exitPerimeter=0;" edge="1" parent="1">
          <mxGeometry width="50" height="50" relative="1" as="geometry">
            <mxPoint x="703.97" y="272.98" as="sourcePoint" />
            <mxPoint x="814" y="273" as="targetPoint" />
          </mxGeometry>
        </mxCell>
        <mxCell id="NNIVwGtBNL9wqv9o0g3V-7" value="Interfaces towards MongoDB" style="text;html=1;strokeColor=none;fillColor=none;align=center;verticalAlign=middle;whiteSpace=wrap;rounded=0;" vertex="1" parent="1">
          <mxGeometry x="820" y="247" width="130" height="60" as="geometry" />
        </mxCell>
        <mxCell id="NNIVwGtBNL9wqv9o0g3V-8" value="" style="shape=image;verticalLabelPosition=bottom;labelBackgroundColor=default;verticalAlign=top;aspect=fixed;imageAspect=0;image=https://d1.awsstatic.com/acs/characters/Logos/Docker-Logo_Horizontel_279x131.b8a5c41e56b77706656d61080f6a0217a3ba356d.png;" vertex="1" parent="1">
          <mxGeometry x="417.38" y="83.84" width="77" height="36.16" as="geometry" />
        </mxCell>
      </root>
    </mxGraphModel>
  </diagram>
</mxfile>
